<svg width="596" height="596" viewBox="0 0 596 596" fill="none" xmlns="http://www.w3.org/2000/svg">
<path d="M334.297 451.172C334.068 451.235 333.873 451.387 333.756 451.593C333.639 451.8 333.608 452.045 333.671 452.274C333.735 452.504 333.886 452.698 334.093 452.816C334.3 452.933 334.545 452.963 334.774 452.9C342.305 451.251 349.365 447.92 355.425 443.156C378.461 426.14 377.269 402.002 390.381 379.92C400.87 363.083 410.079 365.02 409.363 362.845C409.337 362.759 409.293 362.679 409.234 362.611C409.175 362.542 409.103 362.487 409.022 362.448C408.941 362.409 408.853 362.387 408.763 362.383C408.673 362.38 408.583 362.395 408.499 362.427C367.256 377.596 390.56 431.683 334.297 451.172ZM501.207 398.187C502.369 396.966 503.531 395.684 504.664 394.403C513.425 383.764 519.564 367.285 518.968 355.156C518.953 355.025 518.902 354.901 518.821 354.798C518.74 354.694 518.632 354.615 518.508 354.568C518.385 354.522 518.252 354.511 518.122 354.536C517.993 354.561 517.873 354.621 517.776 354.709C516.882 355.573 519.385 360.341 513.097 375.361C507.137 389.605 501.922 393.241 496.052 399.886C490.792 405.958 486.795 413.017 484.293 420.651C481.791 428.285 480.835 436.34 481.479 444.348C481.514 444.516 481.605 444.667 481.738 444.776C481.871 444.885 482.038 444.944 482.21 444.944C482.381 444.944 482.548 444.885 482.681 444.776C482.814 444.667 482.905 444.516 482.94 444.348C482.735 435.822 484.247 427.342 487.385 419.412C490.524 411.482 495.224 404.264 501.207 398.187ZM239.563 269.511C242.543 267.455 242.334 261.167 239.563 258.843C238.779 258.21 237.866 257.758 236.888 257.519C235.909 257.279 234.89 257.258 233.903 257.457C232.916 257.657 231.984 258.071 231.175 258.671C230.366 259.271 229.7 260.042 229.222 260.929C228.669 262.315 228.57 263.841 228.938 265.288C229.306 266.734 230.123 268.027 231.272 268.98C232.42 269.933 233.841 270.498 235.331 270.594C236.821 270.689 238.302 270.31 239.563 269.511ZM231.368 262.687C232.262 259.29 238.133 258.813 239.027 262.21C239.623 264.534 239.354 266.173 238.162 267.067C237.446 267.513 236.631 267.776 235.79 267.833C234.948 267.89 234.105 267.74 233.335 267.395C232.529 266.943 231.897 266.233 231.54 265.38C231.184 264.527 231.123 263.579 231.368 262.687ZM341.39 214.381C341.275 214.373 341.16 214.388 341.052 214.427C340.944 214.465 340.845 214.525 340.761 214.603C340.677 214.682 340.61 214.776 340.564 214.882C340.519 214.987 340.495 215.101 340.496 215.215C340.496 218.195 335.459 221.175 334.536 221.473C334.358 221.517 334.205 221.629 334.11 221.786C334.015 221.942 333.986 222.13 334.029 222.308C334.073 222.486 334.185 222.639 334.341 222.734C334.498 222.829 334.686 222.858 334.863 222.814C342.701 221.205 343.893 214.321 341.39 214.381ZM330.93 209.822C330.572 209.613 328.993 208.451 328.427 208.004C328.427 207.616 329.827 202.64 330.095 201.686C330.364 200.733 329.142 200.494 328.814 201.269C327.567 203.685 326.569 206.221 325.834 208.838C326.072 209.702 330.215 210.835 330.513 210.835C330.637 210.852 330.763 210.827 330.872 210.764C330.98 210.702 331.065 210.605 331.113 210.489C331.16 210.374 331.168 210.245 331.135 210.124C331.102 210.003 331.03 209.897 330.93 209.822ZM321.096 193.849C321.053 193.591 320.92 193.357 320.721 193.188C320.522 193.02 320.269 192.927 320.008 192.927C319.747 192.927 319.494 193.02 319.295 193.188C319.096 193.357 318.963 193.591 318.92 193.849C318.807 195.903 318.807 197.963 318.92 200.017C319.107 200.323 319.39 200.557 319.725 200.684C320.06 200.81 320.428 200.821 320.77 200.715C321.112 200.609 321.409 200.392 321.614 200.098C321.818 199.805 321.919 199.451 321.9 199.094C321.488 197.371 321.219 195.616 321.096 193.849ZM341.926 199.064C341.544 197.355 341.275 195.623 341.121 193.879C341.121 193.586 341.005 193.306 340.799 193.099C340.592 192.892 340.311 192.776 340.019 192.776C339.726 192.776 339.446 192.892 339.239 193.099C339.032 193.306 338.916 193.586 338.916 193.879C338.808 195.864 338.808 197.853 338.916 199.839C338.933 200.069 339 200.294 339.113 200.495C339.226 200.697 339.382 200.872 339.57 201.007C339.757 201.142 339.973 201.234 340.2 201.277C340.427 201.32 340.661 201.312 340.885 201.254C341.109 201.196 341.318 201.09 341.496 200.943C341.675 200.796 341.819 200.611 341.918 200.402C342.017 200.194 342.07 199.965 342.071 199.734C342.072 199.503 342.023 199.274 341.926 199.064Z" fill="black"/>
<path d="M575.14 158.476C574.932 139.911 568.704 132.58 549.483 133.146C543.999 133.146 446.226 134.13 439.223 134.368C434.528 134.37 429.883 135.333 425.574 137.199C423.101 138.183 410.168 144.649 408.737 148.076C407.188 150.52 409.005 220.133 408.737 234.496C406.667 233.317 404.538 232.243 402.36 231.278C401.966 229.32 401.131 227.479 399.917 225.893C398.704 224.308 397.144 223.02 395.357 222.129C392.615 221.056 389.099 222.338 387.073 220.401C385.046 218.464 388.682 217.421 389.069 214.441C389.057 212.375 388.817 210.316 388.354 208.302C386.558 197.5 384.049 186.828 380.844 176.356C378.163 167.744 375.361 160.443 367.643 155.765C367.643 141.282 366.183 56.4115 365.378 51.9117C364.585 47.4707 362.216 43.4648 358.708 40.6293C355.199 37.7938 350.785 36.3189 346.276 36.4753C345.978 36.4753 140.895 36.4753 140.657 36.7137C132.462 41.6009 130.256 52.5077 129.72 60.5537C129.541 64.5767 133.058 145.811 134.458 171.618C119.946 171.916 46.6375 173.883 42.4357 176.118C32.9295 178.442 22.4101 185.058 20.3539 195.816C19.0725 202.729 21.6651 335.548 22.5293 341.836C23.1482 348.627 26.1829 354.972 31.0819 359.716C36.4161 364.395 43.6873 365.259 50.0943 365.497L186.072 362.934C172.781 393.032 157.464 435.706 147.332 462.258C147.284 462.334 147.259 462.421 147.259 462.511C147.259 462.601 147.284 462.688 147.332 462.764C150.074 465.458 153.067 467.883 156.272 470.006C151.414 486.604 151.951 487.528 150.878 488.869C141.67 500.163 130.554 506.749 119.588 507.822C114.492 508.388 109.456 509.282 107.668 514.229C106.208 518.729 110.082 521.738 114.611 522.99C117.591 523.795 137.915 528.294 140.925 528.652C143.592 529.099 146.328 528.49 148.554 526.953C150.699 525.374 157.762 517.03 160.474 514.527C155.557 538.367 152.13 530.768 163.841 535.864C164.004 535.951 164.185 536.001 164.37 536.01C164.556 536.018 164.74 535.986 164.911 535.915C165.082 535.843 165.236 535.735 165.36 535.597C165.484 535.46 165.576 535.296 165.629 535.119C167.715 529.159 181.84 495.097 187.592 486.247C188.992 522.245 188.754 520.368 189.26 520.517C191.257 521.023 193.432 521.5 195.667 521.947C195.667 526.953 195.816 532.079 196.234 537.681C196.234 537.86 195.995 538.158 195.757 538.635C188.366 554.846 180.082 561.462 171.082 565.455C167.089 567.243 161.576 569.687 161.725 575.2C161.725 579.968 166.612 581.488 171.351 581.309C178.473 581.07 187.681 580.117 191.853 579.908C203.773 579.193 204.071 576.928 209.137 566.707C210.299 564.352 211.67 561.551 212.445 560.18C213.845 576.928 211.998 579.401 214.292 579.282C220.521 578.954 223.232 580.653 223.232 578.418C223.471 572.279 226.212 548.141 227.643 542.211C227.643 541.526 227.166 541.138 226.451 540.989C227.345 535.446 229.431 524.54 229.699 522.543C231.189 522.335 232.679 522.096 233.841 521.828C234.169 521.828 233.841 523.407 238.877 502.637C275.055 516.911 313.646 520.338 348.273 512.203C349.495 516.941 358.345 549.244 363.173 563.399C364.818 568.023 367.009 572.435 369.699 576.541C370.385 577.196 371.547 578.359 372.679 578.359C373.812 578.359 375.063 576.779 375.361 575.17C375.659 573.561 370.981 526.566 369.401 509.61C376.482 507.856 383.347 505.328 389.874 502.07L399.529 534.135C399.812 534.613 400.237 534.99 400.745 535.213C401.254 535.436 401.819 535.495 402.362 535.379C402.905 535.264 403.398 534.982 403.772 534.571C404.146 534.161 404.382 533.644 404.446 533.092L403.522 494.68C408.034 491.74 412.354 488.515 416.455 485.025C418.318 486.825 420.413 488.369 422.684 489.614C422.917 489.743 423.192 489.774 423.449 489.702C423.705 489.629 423.923 489.459 424.055 489.227C426.533 485.479 429.313 481.941 432.369 478.648C431.773 482.492 430.61 490.359 430.461 492.803C430.457 492.96 430.485 493.117 430.544 493.264C430.602 493.41 430.69 493.543 430.802 493.655C430.913 493.766 431.046 493.854 431.193 493.912C431.339 493.971 431.496 493.999 431.654 493.995C434.818 493.896 437.978 494.308 441.011 495.216C431.296 499.895 426.856 503.858 427.452 507.136C428.616 512.99 430.25 518.74 432.339 524.331C433.948 528.98 435.617 533.807 440.623 535.834C463.569 545.549 497.66 538.456 520.696 528.771C540.245 521.113 543.105 508.716 541.377 491.193C541.019 487.856 537.145 487.468 529.01 487.677L548.827 462.615C554.787 455.493 549.602 455.732 547.724 441.755C549.52 444.415 551.676 446.812 554.131 448.878C554.277 448.992 554.445 449.075 554.625 449.121C554.804 449.167 554.992 449.176 555.174 449.146C555.979 448.997 555.353 449.414 562.744 436.123C562.884 435.881 562.937 435.598 562.894 435.321C562.85 435.044 562.713 434.791 562.505 434.603C559.257 431.921 551.42 425.663 551.42 425.663C555.46 424.707 559.44 423.513 563.34 422.087C564.269 421.848 565.111 421.347 565.766 420.645C566.42 419.943 566.861 419.068 567.035 418.124C567.422 415.799 567.452 368.984 567.512 362.607C567.512 361.564 565.843 361.266 565.664 362.398C562.177 386.029 546.175 405.697 525.732 411.568C526.388 408.916 528.056 403.164 527.133 401.585C523.762 399.463 520.176 397.705 516.434 396.34C520.159 394.224 528.772 388.711 529.397 387.013C529.785 386.029 527.878 340.048 527.788 335.012C527.774 334.804 527.693 334.607 527.559 334.448C527.425 334.288 527.244 334.176 527.042 334.126C526.84 334.077 526.627 334.092 526.435 334.171C526.242 334.25 526.08 334.388 525.97 334.565C520.2 345.958 511.666 355.722 501.147 362.964C499.925 363.799 491.134 368.477 490.449 369.103C488.244 371.219 490.985 373.811 492.147 375.45C492.982 376.583 495.843 380.427 496.409 381.232C485.919 382.513 483.148 378.907 482.611 381.232C481.581 384.267 480.19 387.169 478.469 389.874C479.084 392.485 479.87 395.054 480.823 397.562C479.077 397.849 477.295 397.849 475.549 397.562C475.238 397.495 474.912 397.547 474.637 397.706C474.362 397.866 474.155 398.123 474.059 398.426C473.224 401.138 472.569 403.403 471.973 405.519C468.361 399.392 464.38 393.491 460.053 387.847C457.937 371.695 450.308 352.832 434.186 350.329C446.315 345.263 454.272 332.24 456.179 319.039C461.9 319.039 544.566 318.8 547.903 319.039C565.992 319.546 574.068 312.632 575.766 294.186C576.452 286.825 575.14 159.817 575.14 158.476ZM163.632 513.275C163.707 512.96 163.66 512.627 163.5 512.345C163.339 512.063 163.078 511.852 162.768 511.755C160.354 510.861 158.507 512.977 157.166 514.497C153.771 518.629 150.043 522.476 146.021 526C143.786 527.073 117.77 521.679 114.522 520.666C112.773 520.27 111.252 519.198 110.29 517.686C109.914 516.586 109.955 515.386 110.406 514.315C110.856 513.243 111.685 512.375 112.734 511.875C115.029 510.474 116.727 510.593 123.164 509.401C129.601 508.209 135.978 507.047 147.183 496.498C148.744 495.003 150.198 493.399 151.534 491.7C153.394 495.836 156.526 499.271 160.474 501.504C165.762 503.853 171.668 504.428 177.311 503.143C174.331 509.103 166.106 527.728 164.05 533.42C162.411 532.764 160.742 532.168 159.103 531.692C160.949 525.64 162.461 519.492 163.632 513.275ZM425.336 350.091C421.144 350.27 416.981 350.869 412.909 351.879C399.562 353.387 386.142 354.163 372.709 354.203C370.742 342.283 371.338 344.488 370.832 341.18C370.623 339.75 370.325 337.783 371.368 337.157C385.642 330.78 400.483 324.999 414.697 318.771C417.677 320.946 417.916 320.678 418.184 320.499C418.312 320.361 418.383 320.18 418.383 319.992C418.383 319.805 418.312 319.624 418.184 319.486C417.021 318.311 415.797 317.197 414.518 316.148C403.078 305.918 395.11 292.377 391.721 277.408C391.682 277.23 391.573 277.076 391.42 276.978C391.266 276.88 391.08 276.847 390.902 276.887C390.724 276.926 390.569 277.035 390.472 277.189C390.374 277.342 390.341 277.528 390.38 277.706C392.905 293.273 400.957 307.408 413.058 317.519L371.964 334.505C370.776 334.854 369.732 335.575 368.984 336.561C366.927 336.002 365.069 334.877 363.62 333.313C355.872 327.085 352.773 331.346 342.76 339.273C341.792 340.003 340.876 340.8 340.018 341.657C334.725 336.949 329.451 332.221 324.195 327.472C322.854 325.505 310.636 283.368 305.629 266.442C309.499 257.059 315.743 248.843 323.748 242.602C324.673 245.428 325.84 248.17 327.234 250.797C329.469 252.943 332.36 251.9 335.161 251.214C334.389 252.816 333.944 254.555 333.852 256.33C333.76 258.106 334.023 259.882 334.625 261.555C336.735 266.285 340.029 270.391 344.19 273.475C354.382 282.415 353.875 282.176 354.471 282.176C354.747 282.163 355.007 282.049 355.205 281.857C355.402 281.665 355.523 281.408 355.544 281.133C356.557 270.733 359.895 267.872 369.312 264.564C374.462 262.883 378.82 259.377 381.564 254.706C384.308 250.035 385.25 244.522 384.212 239.205C390.44 239.252 396.646 238.45 402.658 236.821C402.942 236.757 403.189 236.583 403.346 236.337C403.502 236.091 403.555 235.794 403.492 235.509C403.492 235.003 403.284 234.407 403.135 233.781C446.613 254.909 473.105 320.737 438.031 345.203C434.216 347.758 429.879 349.428 425.336 350.091ZM435.349 353.488C443.007 355.127 449.414 361.564 453.586 372.887C473.493 426.676 427.094 491.849 369.491 506.988C369.133 503.382 367.166 482.462 366.779 480.913C366.493 479.545 365.707 478.333 364.574 477.515C360.908 475.489 354.62 477.724 351.283 479.691C348.101 481.803 345.258 484.385 342.849 487.349C342.849 488.303 347.021 506.272 347.915 509.938C311.696 517.512 274.05 514.279 239.652 500.64C244.956 478.588 251.989 448.401 253.956 439.043C274.459 445.421 303.275 444.825 303.573 444.795C303.668 444.77 303.753 444.714 303.813 444.635C303.873 444.557 303.906 444.461 303.906 444.363C303.906 444.264 303.873 444.168 303.813 444.09C303.753 444.012 303.668 443.956 303.573 443.931C287.034 438.418 272.76 424.203 263.403 403.879C249.009 373.513 219.15 373.871 207.528 388.979C190.721 410.793 188.009 474.267 187.741 481.926C186.698 483.833 180.708 495.544 178.443 500.312C160.563 504.574 155.467 494.352 153.292 489.972C152.934 489.227 153.113 491.193 158.656 471.615C161.636 473.075 182.824 480.555 182.853 478.35C183.092 453.02 189.231 392.764 205.859 378.907C217.779 369.133 243.556 370.831 254.969 379.294C262.225 385.917 268.161 393.855 272.462 402.688C282.028 423.22 298.507 438.448 316.804 442.262C340.257 440.206 367.464 402.837 375.242 378.937C389.606 360.729 413.297 350.299 435.349 353.488ZM481.986 474.684C482.025 474.862 482.134 475.017 482.287 475.115C482.441 475.213 482.627 475.245 482.805 475.206C482.983 475.166 483.138 475.058 483.236 474.904C483.333 474.75 483.366 474.564 483.327 474.386C481.449 464.791 476.145 456.506 472.807 447.566C467.026 432.279 471.228 415.859 476.115 400.333C478.295 400.741 480.548 400.449 482.552 399.499C484.191 398.217 482.88 396.042 481.032 390.559C482.551 388.261 483.745 385.764 484.578 383.139C489.236 384.241 494.079 384.302 498.763 383.318C498.945 383.271 499.113 383.182 499.254 383.059C499.395 382.935 499.505 382.78 499.575 382.605C499.645 382.431 499.672 382.243 499.655 382.056C499.639 381.869 499.578 381.689 499.478 381.53C497.482 378.907 492.207 371.725 491.939 371.189C491.671 370.652 491.939 370.712 492.803 370.325C507.047 363.843 518.727 352.802 526 338.945C526.358 348.69 527.52 384.956 527.192 386.417C522.562 389.768 517.68 392.757 512.59 395.357C512.368 395.479 512.187 395.665 512.071 395.891C511.954 396.116 511.908 396.371 511.936 396.624C511.965 396.876 512.068 397.114 512.232 397.307C512.396 397.501 512.614 397.641 512.858 397.711C517.075 399.153 521.162 400.947 525.076 403.075C525.613 403.939 523.735 410.763 523.408 412.521L520.428 413.118C520.131 413.195 519.876 413.384 519.715 413.645C519.554 413.906 519.5 414.218 519.563 414.518C520.338 419.793 522.096 432.785 522.096 432.785C513.544 424.829 513.603 420.418 511.756 420.24C511.573 420.217 511.387 420.24 511.215 420.308C511.043 420.376 510.891 420.485 510.772 420.627C496.76 436.886 488.893 457.544 488.542 479.005C488.575 479.166 488.663 479.311 488.79 479.415C488.918 479.519 489.078 479.575 489.242 479.575C489.406 479.575 489.566 479.519 489.693 479.415C489.821 479.311 489.909 479.166 489.942 479.005C491.064 458.699 498.597 439.272 511.458 423.518C514.421 428.624 518.312 433.131 522.931 436.809C523.128 436.983 523.375 437.092 523.636 437.118C523.898 437.144 524.162 437.087 524.39 436.955C524.617 436.823 524.798 436.623 524.905 436.383C525.012 436.142 525.041 435.874 524.987 435.616C524.987 435.616 522.841 421.104 522.007 415.204C542.301 411.598 559.734 394.344 565.604 372.351C565.604 384.599 565.187 414.965 565.187 415.263C565.187 417.2 565.187 419.048 563.459 419.912C558.571 421.629 553.598 423.091 548.559 424.293C548.353 424.347 548.165 424.456 548.015 424.608C547.865 424.76 547.758 424.949 547.707 425.156C547.655 425.363 547.66 425.58 547.72 425.785C547.781 425.989 547.896 426.174 548.052 426.319C549.453 427.451 557.499 434.037 560.151 436.153C560.151 436.153 556.516 443.096 554.668 446.523C551.646 443.727 549.144 440.418 547.277 436.749C547.156 436.54 546.971 436.377 546.748 436.284C546.525 436.192 546.279 436.174 546.045 436.235C545.812 436.296 545.605 436.432 545.456 436.621C545.308 436.811 545.225 437.044 545.221 437.285C546.056 457.192 552.433 454.599 547.158 461.125C528.98 483.982 525.792 491.372 506.213 497.154C510.147 479.273 523.616 472.032 529.01 459.129C531.99 452.066 531.334 444.229 533.689 437.136C535.328 432.214 538.007 427.702 541.545 423.907C545.082 420.112 549.396 417.124 554.191 415.144C554.365 415.085 554.508 414.959 554.589 414.794C554.67 414.629 554.682 414.439 554.623 414.265C554.564 414.091 554.438 413.948 554.273 413.867C554.108 413.786 553.918 413.773 553.744 413.833C547.499 416.036 541.988 419.93 537.826 425.081C533.664 430.233 531.015 436.438 530.172 443.007C528.891 452.155 529.159 456.655 523.437 464.671C517.12 473.462 506.779 481.24 503.442 497.898C498.259 499.189 492.955 499.928 487.618 500.104C486.992 494.77 483.714 491.641 481.39 491.521C479.244 487.767 456.626 453.348 448.282 445.808C457.509 429.203 461.751 410.289 460.5 391.334C464.076 396.608 470.185 406.502 471.258 408.439C460.857 448.55 477.843 454.569 481.986 474.684ZM434.991 475.995C434.99 475.785 434.929 475.58 434.815 475.403C434.701 475.226 434.539 475.086 434.348 474.998C434.157 474.911 433.945 474.879 433.737 474.908C433.529 474.937 433.333 475.025 433.173 475.161C429.363 478.944 425.902 483.063 422.833 487.469C421.078 486.444 419.431 485.246 417.916 483.893C425.118 477.634 431.649 470.643 437.405 463.033C469.052 500.998 467.533 499.895 468.427 499.18C468.497 499.132 468.557 499.071 468.602 499C468.648 498.928 468.679 498.848 468.693 498.765C468.707 498.681 468.703 498.596 468.683 498.513C468.663 498.431 468.627 498.354 468.576 498.286C466.49 495.127 445.242 468.486 438.776 461.006C441.846 456.762 444.653 452.334 447.179 447.745C459.099 459.397 477.605 490.061 479.333 492.952C477.688 495.318 476.919 498.185 477.158 501.057C473.393 502.109 469.438 502.282 465.596 501.564C461.036 500.67 443.991 492.296 432.816 491.968C433.531 488.72 434.663 478.797 435.08 475.995H434.991ZM356.975 479.78H357.481C359.806 479.244 363.441 478.439 364.305 480.793C364.753 482.402 373.752 571.296 373.752 574.038C373.8 574.47 373.753 574.907 373.614 575.319C373.475 575.73 373.247 576.107 372.947 576.421C365.199 573.441 346.128 494.382 345.383 487.677C348.386 483.962 352.418 481.215 356.975 479.78ZM39.6643 339.064C39.6643 332.24 35.1347 196.948 35.5817 192.061C36.3565 182.853 39.6643 178.711 46.9653 177.757C54.6835 176.267 126.74 174.211 134.607 174.002C134.786 176.982 134.935 179.068 134.995 179.456C135.325 181.8 136.443 183.962 138.165 185.587C139.887 187.212 142.111 188.202 144.471 188.396C144.471 188.098 142.504 188.396 204.071 188.604C204.071 197.902 204.637 241.589 204.667 243.645C187.145 244.3 169.086 245.016 165.629 245.343C165.152 245.343 164.735 246.208 164.914 246.625C170.099 259.439 193.194 311.47 199.661 324.82C200.264 326.337 201.3 327.643 202.641 328.575C203.475 329.827 204.458 331.227 205.621 332.628C196.174 340.167 192.777 348.511 187.294 360.729C162.053 361.266 59.7495 363.381 57.4549 363.292C51.0777 363.024 46.5779 361.176 43.7767 357.66C39.5153 352.594 39.6941 345.68 39.6643 339.064ZM384.421 220.043C385.046 222.308 387.4 223.53 391.036 223.619C397.294 223.351 399.976 228.745 401.108 234.943C395.017 236.134 388.837 236.822 382.632 236.999C382.453 237.001 382.276 237.045 382.116 237.127C381.956 237.208 381.818 237.326 381.711 237.47C381.604 237.615 381.532 237.782 381.501 237.959C381.469 238.135 381.479 238.317 381.53 238.489C382.481 241.891 382.49 245.488 381.556 248.894C380.622 252.301 378.779 255.389 376.225 257.83C368.209 265.548 355.366 261.286 353.488 279.077C350.806 276.753 340.883 268.319 338.856 265.846C335.37 261.823 333.969 255.148 337.545 250.946C345.203 249.694 352.942 249.007 360.7 248.89C360.874 248.89 361.04 248.821 361.163 248.698C361.286 248.575 361.355 248.408 361.355 248.234C361.355 248.06 361.286 247.893 361.163 247.771C361.04 247.648 360.874 247.578 360.7 247.578C351.774 246.946 342.803 247.588 334.059 249.486C330.721 250.41 329.082 251.065 327.592 247.936C326.847 246.357 322.407 232.827 321.632 230.324C320.261 227.076 321.095 228.059 323.599 226.51C326.051 228.583 328.804 230.271 331.764 231.516C331.764 231.874 333.314 236.612 333.552 237.476C333.653 238.192 334.011 238.847 334.559 239.319C335.108 239.79 335.809 240.046 336.532 240.039C343.481 240.678 350.483 239.66 356.963 237.07C363.443 234.48 369.217 230.391 373.812 225.139C373.903 225.014 373.945 224.86 373.929 224.706C373.913 224.552 373.841 224.409 373.726 224.306C373.611 224.202 373.462 224.144 373.307 224.144C373.152 224.144 373.003 224.201 372.888 224.305C368.273 228.97 362.727 232.611 356.613 234.994C350.498 237.376 343.951 238.445 337.396 238.132C335.31 237.983 335.578 238.43 333.82 232.172C341.866 234.437 343.892 231.367 341.032 234.198C340.938 234.31 340.887 234.45 340.886 234.595C340.885 234.741 340.934 234.882 341.026 234.995C341.118 235.107 341.246 235.185 341.388 235.213C341.53 235.242 341.678 235.22 341.806 235.152C352.646 227.047 360.554 215.636 364.335 202.64C364.363 202.556 364.373 202.467 364.365 202.379C364.357 202.291 364.332 202.205 364.29 202.128C364.248 202.05 364.191 201.981 364.122 201.926C364.053 201.87 363.973 201.829 363.888 201.806C362.339 201.269 363.382 204.339 356.111 216.229C353.13 204.309 355.127 191.703 351.909 179.724C351.865 179.554 351.756 179.408 351.605 179.319C351.454 179.229 351.274 179.204 351.104 179.247C350.934 179.291 350.788 179.4 350.699 179.551C350.61 179.702 350.584 179.882 350.627 180.052C351.149 182.587 351.488 185.156 351.641 187.74C345.293 181.452 331.883 171.41 321.304 173.704C319.025 173.774 316.865 174.739 315.292 176.39C313.72 178.041 312.86 180.245 312.901 182.525C310.338 179.068 312.126 173.794 314.45 170.873C320.589 162.857 331.496 158.953 342.373 155.973C351.998 153.41 364.872 153.768 372.173 162.47C375.34 166.812 377.628 171.732 378.908 176.952C382.714 188.717 385.369 200.823 386.834 213.1C386.948 213.595 386.925 214.112 386.767 214.595C386.61 215.077 386.324 215.508 385.94 215.841C385.345 216.351 384.893 217.006 384.626 217.742C384.36 218.478 384.289 219.271 384.421 220.043ZM201.836 324.105C199.035 318.145 171.351 256.757 166.94 246.625C176.804 246.625 288.107 242.542 290.044 242.483C293.828 254.641 315.88 328.068 315.88 328.694C315.88 328.694 289.537 329.35 275.323 329.916C251.334 317.817 229.133 319.128 212.981 327.681C203.862 327.293 203.445 327.472 201.836 324.105ZM315.076 200.494C314.659 191.554 315.076 185.326 316.477 184.7C321.602 182.376 331.168 181.72 341.806 185.088C343.147 185.535 347.439 187.77 351.76 189.588C352.236 199.124 351.76 209.226 354.74 218.464C352.106 223.083 348.722 227.232 344.727 230.741C326.698 233.125 315.88 218.702 315.016 200.494H315.076ZM342.432 378.699C341.717 380.069 353.846 389.188 355.157 390.171C359.448 394.224 354.203 396.43 349.853 392.526C326.013 371.1 305.689 346.544 279.197 331.883C294.633 331.376 313.735 330.81 317.013 330.78C320.321 333.969 358.733 369.937 368.656 378.46C340.942 378.669 342.701 378.222 342.373 378.699H342.432ZM371.696 378.281C371.398 378.013 321.036 332.508 319.099 330.244C317.966 328.336 297.077 257.442 292.279 243.168C295.222 245.176 297.405 248.114 298.477 251.512C300.265 256.608 320.559 324.552 320.648 324.88C320.892 326.53 321.63 328.068 322.764 329.29C330.602 336.829 363.858 366.987 374.676 375.927C374.05 376.702 373.424 377.477 372.828 378.281H371.696ZM369.52 349.643C364.335 349.226 362.696 348.63 361.415 350.21C360.998 350.865 359.806 352.326 358.286 351.998C358.022 351.936 357.774 351.821 357.557 351.659C357.34 351.498 357.159 351.293 357.025 351.058C356.891 350.823 356.806 350.563 356.777 350.294C356.748 350.025 356.775 349.753 356.855 349.495C358.316 348.124 359.835 346.932 361.206 345.471C361.28 345.369 361.316 345.244 361.311 345.118C361.305 344.991 361.257 344.871 361.175 344.775C361.093 344.679 360.981 344.613 360.857 344.588C360.733 344.563 360.604 344.58 360.491 344.637C358.971 345.621 357.511 347.2 355.783 348.243C355.64 348.245 355.499 348.278 355.371 348.34C355.242 348.401 355.128 348.49 355.038 348.6C354.681 348.745 354.295 348.806 353.911 348.777C353.527 348.749 353.154 348.632 352.823 348.436C352.491 348.24 352.209 347.97 351.999 347.647C351.789 347.324 351.656 346.957 351.611 346.574C351.611 344.19 354.173 342.611 355.663 340.852C356.259 340.257 355.366 339.362 354.74 339.929C353.143 341.277 351.658 342.752 350.299 344.339C348.582 344.885 346.83 345.313 345.055 345.621C344.25 345.621 345.055 346.127 341.538 343.117C345.204 339.678 349.197 336.604 353.458 333.939C360.7 329.171 362.041 337.426 368.567 338.379C368.561 342.154 368.88 345.923 369.52 349.643ZM376.225 374.199L346.217 347.379C347.305 347.164 348.38 346.885 349.435 346.544C349.411 347.191 349.538 347.835 349.806 348.425C350.073 349.014 350.475 349.533 350.978 349.941C351.481 350.349 352.072 350.634 352.704 350.773C353.336 350.913 353.992 350.904 354.62 350.746C354.74 351.378 355.007 351.973 355.399 352.482C355.792 352.992 356.3 353.401 356.881 353.677C357.462 353.953 358.1 354.088 358.743 354.07C359.385 354.053 360.015 353.884 360.581 353.577C364.693 351.7 360.581 350.984 367.226 351.581C368.09 351.581 369.014 351.759 369.908 351.789C370.176 353.19 370.444 354.471 370.742 355.693C370.814 355.937 370.963 356.15 371.168 356.301C371.372 356.452 371.621 356.531 371.875 356.527C425.157 355.395 398.993 348.034 376.166 374.199H376.225ZM304.706 263.223C301.338 251.929 299.58 242.81 292.785 240.486C292.785 240.844 295.319 240.099 207.111 243.466C207.111 228.953 206.485 193.849 206.395 188.515H313.228C312.394 201.418 313.228 215.335 322.168 224.93C321.095 225.348 319.188 226.242 318.741 226.987C319.84 231.803 321.315 236.526 323.152 241.112C315.156 246.754 308.76 254.372 304.586 263.223H304.706ZM292.458 171.112C292.458 166.94 291.504 144.5 291.296 140.388H298.895C298.895 144.619 299.461 166.969 299.639 171.082C297.256 171.022 294.842 171.052 292.458 171.112ZM248.801 172.006C248.831 163.9 247.788 95.3601 247.639 86.4201H255.238C255.238 109.068 255.893 165.718 256.012 171.886L248.801 172.006ZM201.776 97.9229H209.405C209.405 117.501 210.031 166.94 210.18 172.81H202.968C202.998 165.479 201.955 106.088 201.776 97.9229ZM137.081 178.144C136.663 175.611 133.207 96.2541 131.806 65.8581C131.478 56.5009 133.952 44.9981 140.239 39.6639C140.239 60.5239 142.921 175.641 143.517 186.071C141.763 185.565 140.207 184.534 139.056 183.117C137.905 181.7 137.216 179.965 137.081 178.144ZM410.495 153.381C410.25 151.435 410.716 149.467 411.807 147.838C414.139 146.001 416.644 144.394 419.286 143.04C416.306 148.404 417.081 146.914 418.661 241.082C416.203 239.209 413.646 237.468 411.002 235.867C410.704 220.848 410.555 166.254 410.585 153.381H410.495ZM436.541 186.488C437.926 184.523 439.766 182.922 441.904 181.822C444.041 180.722 446.414 180.155 448.818 180.171C460.947 180.171 465.357 194.594 467.741 206.335C469.827 215.543 469.976 226.391 476.681 233.9C507.852 262.151 510.206 222.725 529.159 224.245C535.119 224.93 539.082 230.384 543.344 234.317C545.166 236.364 547.721 237.608 550.455 237.781C553.189 237.954 555.881 237.042 557.946 235.241V277.587C550.615 277.587 457.52 276.902 447.298 277.021C444.81 271.813 441.879 266.828 438.537 262.121C438.895 258.515 436.69 189.707 436.63 186.488H436.541ZM448.461 279.047C462.169 279.256 549.155 279.494 558.184 279.494C558.197 280.629 558.267 281.763 558.393 282.891C558.415 283.131 558.524 283.355 558.7 283.52C558.875 283.685 559.106 283.779 559.346 283.786C561.105 283.786 560.3 286.497 560.002 205.68C560.002 205.482 559.924 205.293 559.784 205.153C559.644 205.013 559.455 204.935 559.257 204.935C559.059 204.935 558.87 205.013 558.73 205.153C558.591 205.293 558.512 205.482 558.512 205.68C558.512 210.984 558.184 228.506 558.154 231.963C557.471 233.04 556.541 233.94 555.443 234.589C554.344 235.238 553.107 235.617 551.833 235.695C550.56 235.774 549.286 235.549 548.116 235.041C546.946 234.532 545.913 233.753 545.102 232.768C536.49 223.828 527.967 216.378 515.511 227.881C505.319 238.4 499.717 247.28 485.711 238.191C480.04 235.17 475.765 230.062 473.791 223.947C469.082 207.05 470.393 180.975 450.487 177.519C447.826 177.247 445.138 177.631 442.66 178.639C440.182 179.647 437.989 181.247 436.272 183.3C436.272 178.77 435.945 174.36 435.766 169.771C435.766 169.581 435.691 169.399 435.556 169.265C435.422 169.131 435.24 169.055 435.051 169.055C434.861 169.055 434.679 169.131 434.545 169.265C434.411 169.399 434.335 169.581 434.335 169.771C434.335 174.717 435.885 243.794 436.362 258.962C431.77 252.952 426.489 247.501 420.627 242.721C420.627 231.367 419.614 157.642 419.495 153.083C419.316 144.798 422.624 140 430.253 138.004C436.511 136.275 549.036 134.547 559.734 136.007C566.826 136.901 570.879 143.845 571.892 149.864C573.144 157.344 573.501 280.984 573.531 282.623C573.77 297.225 572.041 313.883 556.843 315.94C553.416 316.416 468.635 316.625 456.328 316.506C456.709 303.579 454.034 290.745 448.52 279.047H448.461ZM361.206 47.0841C364.782 53.3421 362.756 51.6137 365.289 154.543C352.952 148.97 335.489 154.096 323.569 160.503V72.2055C323.569 71.5201 325.118 71.7287 314.629 71.7287C313.973 71.7287 314.033 65.5899 316.238 165.45C314.45 167.064 312.895 168.919 311.619 170.963H301.606C301.606 167.089 300.474 139.613 300.355 139.375C300.32 139.22 300.233 139.082 300.108 138.984C299.983 138.886 299.828 138.834 299.669 138.838C296.449 138.73 293.226 138.8 290.014 139.047C289.919 139.112 289.843 139.202 289.796 139.307C289.749 139.412 289.731 139.528 289.746 139.643C289.746 142.623 290.282 166.82 290.491 171.112L279.256 171.35C279.823 120.452 280.031 123.134 279.256 123.074C271.18 123.402 271.002 123.253 271.002 123.849V171.529L257.89 171.797C257.89 165.152 256.876 90.0557 256.668 85.7049C256.677 85.5089 256.611 85.3169 256.484 85.1675C256.356 85.0182 256.177 84.9227 255.983 84.9003C255.983 84.9003 246.655 84.9003 246.357 85.1983C245.493 85.8837 246.834 168.638 246.834 172.035L232.679 172.304V127.812C232.574 127.771 232.456 127.771 232.351 127.812C224.126 127.812 224.216 127.812 224.216 128.468V172.482L212.117 172.84C211.283 95.8965 210.597 97.2971 210.895 97.2971C210.896 97.1062 210.827 96.9215 210.701 96.7785C210.574 96.6355 210.399 96.5443 210.21 96.5223C210.21 96.5223 200.942 96.5223 200.644 96.7607C199.631 97.3865 201.061 167.774 201.061 173.078L184.671 173.376C184.761 57.2459 185.088 62.5801 184.314 62.5801L177.013 62.8483C176.506 62.8483 176.685 55.7261 176.685 173.496C164.407 173.734 164.765 173.496 164.586 173.972C164.529 174.065 164.497 174.172 164.493 174.281C164.49 174.39 164.515 174.498 164.566 174.594C164.617 174.691 164.693 174.772 164.785 174.83C164.877 174.889 164.983 174.922 165.093 174.926C183.181 174.926 292.726 173.823 310.576 173.287C308.788 177.846 309.116 182.883 313.258 185.535V186.19C296.034 186.697 148.643 186.19 145.991 186.19C145.991 182.287 142.653 45.9517 142.623 38.3229C163.275 38.3229 345.263 38.5911 350.001 39.3659C352.324 39.7421 354.534 40.6297 356.472 41.9645C358.41 43.2993 360.027 45.0479 361.206 47.0841ZM36.3863 180.886C32.9593 185.833 32.7805 192.27 32.7805 198.498C32.7805 199.869 36.9525 346.544 37.5783 350.12C37.9347 352.716 38.8425 355.204 40.2406 357.42C41.6386 359.635 43.4947 361.526 45.6839 362.964C42.1812 362.788 38.7568 361.863 35.6413 360.252C29.0257 356.617 26.5225 349.137 25.6285 344.995C24.0491 337.545 21.9631 209.583 22.3207 202.968C22.1121 192.001 25.8371 186.071 36.3267 180.886H36.3863ZM483.386 517.894C495.314 517.062 506.999 514.116 517.895 509.193C525.643 505.617 535.298 499.955 539.291 495.455C539.917 509.52 537.056 518.609 522.603 525.255C503.471 534.195 458.086 545.161 438.478 532.079C436.719 530.38 432.518 517.477 430.849 511.517C439.401 517.209 464.314 519.414 483.327 517.894H483.386ZM213.875 556.932C211.372 556.724 210.18 559.227 209.346 561.045C202.372 575.945 202.462 576.898 195.369 577.375C193.134 577.524 172.096 579.253 170.546 579.253C165.122 579.64 162.113 575.915 165.957 571.355C168.148 569.703 170.58 568.396 173.168 567.481C181.453 563.637 194.565 553.475 197.455 540.9C200.446 544.414 204.527 546.827 209.048 547.754C214.644 548.354 220.289 547.198 225.199 544.446C224.067 550.883 221.444 570.938 221.117 577.226C219.374 577.043 217.623 576.964 215.872 576.988C215.842 575.289 215.276 557.052 213.816 556.932H213.875ZM224.842 541.585C220.969 544.324 216.323 545.755 211.581 545.668C209.072 545.479 206.629 544.776 204.404 543.602C202.179 542.428 200.219 540.808 198.647 538.844C198.647 537.92 198.32 527.937 198.409 522.573C208.064 523.334 217.756 523.523 227.434 523.139C226.957 525.762 225.438 536.4 224.782 541.585H224.842Z" fill="black"/>
<path d="M521.501 156.927C521.669 156.893 521.821 156.801 521.929 156.668C522.038 156.535 522.098 156.369 522.098 156.197C522.098 156.025 522.038 155.858 521.929 155.725C521.821 155.592 521.669 155.501 521.501 155.467H516.494C479.036 156.629 480.258 156.599 480.287 157.642C480.317 158.685 479.155 158.924 521.501 156.927ZM522.752 163.9C516.077 163.9 489.972 164.258 483.267 164.794C483.032 164.835 482.819 164.957 482.665 165.14C482.512 165.323 482.427 165.554 482.427 165.792C482.427 166.031 482.512 166.262 482.665 166.445C482.819 166.628 483.032 166.75 483.267 166.791C490.092 166.791 516.047 165.45 522.782 165.182C522.928 165.147 523.057 165.063 523.149 164.944C523.24 164.825 523.288 164.679 523.285 164.529C523.281 164.379 523.226 164.235 523.13 164.121C523.033 164.006 522.9 163.928 522.752 163.9ZM516.196 174.867C511.548 175.045 496.618 174.867 482.373 174.867C482.057 174.867 481.754 174.992 481.531 175.216C481.307 175.439 481.181 175.742 481.181 176.059C481.181 176.375 481.307 176.678 481.531 176.901C481.754 177.125 482.057 177.251 482.373 177.251C485.353 177.459 513.306 176.297 516.226 176.178C516.4 176.174 516.565 176.101 516.685 175.975C516.806 175.85 516.871 175.681 516.867 175.507C516.863 175.333 516.79 175.168 516.664 175.048C516.539 174.928 516.37 174.863 516.196 174.867ZM420.181 25.956C416.689 26.8136 413.495 28.6023 410.939 31.1318C408.383 33.6612 406.562 36.8366 405.668 40.3196C402.36 52.9846 413.833 66.782 427.035 64.5768C429.92 63.9676 432.65 62.7759 435.058 61.0747C437.467 59.3735 439.502 57.1986 441.041 54.6832C442.544 51.907 443.397 48.8258 443.537 45.6718C443.676 42.5178 443.098 39.3734 441.845 36.4754C440.057 31.3498 434.753 23.1548 420.181 25.956ZM427.392 51.0774C421.641 55.0408 414.906 47.8292 417.558 43.389C422.326 35.4622 430.79 41.452 430.998 44.432C430.995 45.7551 430.661 47.0563 430.026 48.217C429.391 49.3778 428.475 50.3611 427.363 51.0774H427.392ZM427.035 37.5184C425.024 36.8855 422.859 36.9371 420.881 37.665C418.902 38.3929 417.22 39.7561 416.098 41.5414C415.181 43.1487 414.836 45.0189 415.117 46.8477C415.398 48.6766 416.29 50.3564 417.648 51.6138C418.729 52.6518 420.059 53.395 421.51 53.7723C422.961 54.1495 424.484 54.1482 425.934 53.7685C427.384 53.3888 428.713 52.6433 429.792 51.6034C430.872 50.5636 431.667 49.264 432.101 47.8292C434.644 49.4971 437.488 50.6512 440.475 51.2264C439.42 53.8006 437.801 56.1057 435.739 57.9725C433.676 59.8393 431.221 61.2203 428.555 62.014C416.635 65.4708 406.026 54.6534 407.367 42.9718C407.76 40.2511 408.765 37.6553 410.308 35.3801C411.85 33.105 413.89 31.2099 416.272 29.8381C418.654 28.4663 421.316 27.6535 424.058 27.4611C426.801 27.2687 429.551 27.7017 432.101 28.7274C429.741 31.2211 427.996 34.2313 427.005 37.5184H427.035Z" fill="black"/>
<path d="M393.361 77.1225C400.632 76.7351 533.778 75.7219 543.493 72.8313C550.973 71.4605 553.536 68.0037 553.148 60.4643C553.148 57.9611 553.566 29.2637 552.791 24.1679C552.105 17.8801 548.738 14.9001 541.646 14.5127C535.686 13.9465 397.563 16.0921 391.036 17.4927C385.732 18.5357 382.096 20.4727 381.381 26.4327C381.053 28.2505 382.484 61.8947 382.663 65.1727C383.08 72.2651 386.626 76.4669 393.361 77.1225ZM404.983 75.0961C403.228 74.8847 401.542 74.2856 400.048 73.3425C398.553 72.3993 397.287 71.1355 396.341 69.6427C394.24 66.025 393.159 61.9058 393.212 57.7227C392.884 52.6567 391.93 33.8827 391.811 29.3531C391.811 27.5055 391.811 21.3667 396.341 19.1615C403.344 18.4463 533.808 16.5093 539.381 16.6881C542.361 16.6881 546.384 16.9265 548.649 19.2211C551.986 22.5885 550.913 28.1611 551.122 60.1961C551.778 68.3613 548.678 70.1493 541.05 71.2519C534.196 72.2949 406.175 75.0961 405.042 75.0961H404.983ZM389.785 25.5685C389.397 28.2505 390.977 53.8785 391.126 57.2757C391.483 65.7091 393.897 71.6989 398.665 75.1557H395.685C388.414 75.1557 385.106 71.6691 384.778 64.2489C384.6 60.0173 383.229 28.4889 383.527 26.7009C384.153 21.2773 387.818 20.0853 392.675 19.4893C391.169 21.2031 390.187 23.313 389.844 25.5685H389.785Z" fill="black"/>
<path d="M460.113 33.2866C461.216 33.2866 495.426 32.4224 495.128 32.4224C495.282 32.3898 495.419 32.3054 495.518 32.1833C495.617 32.0613 495.671 31.909 495.671 31.7519C495.671 31.5948 495.617 31.4424 495.518 31.3204C495.419 31.1983 495.282 31.1139 495.128 31.0814C492.595 31.0814 463.063 30.5748 460.053 31.0814C459.824 31.1645 459.626 31.3179 459.489 31.5197C459.351 31.7214 459.281 31.9614 459.287 32.2055C459.294 32.4495 459.377 32.6853 459.526 32.8794C459.674 33.0735 459.879 33.2159 460.113 33.2866ZM505.618 42.6438C501.326 43.061 458.236 41.6008 457.938 43.7762C457.938 44.1934 458.325 44.5212 458.623 44.5808C462.378 45.0278 505.469 44.104 505.767 44.0742C505.861 44.0644 505.952 44.0362 506.035 43.9912C506.118 43.9462 506.191 43.8853 506.25 43.812C506.31 43.7387 506.354 43.6543 506.381 43.5638C506.408 43.4733 506.417 43.3784 506.407 43.2845C506.397 43.1905 506.369 43.0995 506.324 43.0164C506.279 42.9334 506.218 42.86 506.145 42.8006C506.072 42.7411 505.987 42.6966 505.897 42.6697C505.806 42.6428 505.712 42.634 505.618 42.6438ZM504.753 54.087C497.393 54.087 460.292 53.9082 458.355 54.236C458.164 54.2865 457.995 54.3986 457.875 54.5549C457.755 54.7112 457.69 54.9029 457.69 55.1002C457.69 55.2974 457.755 55.4891 457.875 55.6454C457.995 55.8017 458.164 55.9139 458.355 55.9644C460.411 56.2922 501.744 55.3386 504.783 55.2492C504.914 55.2159 505.03 55.1391 505.112 55.0314C505.193 54.9236 505.236 54.7913 505.233 54.6562C505.229 54.521 505.18 54.391 505.093 54.2876C505.006 54.1842 504.886 54.1134 504.753 54.087ZM83.441 244.986C103.616 243.347 114.314 217.361 98.639 202.938C98.0728 202.431 99.1456 201.299 82.6364 225.169C62.6704 206.246 63.7432 206.961 63.2962 207.289C47.5022 222.874 63.1472 246.655 83.441 244.986Z" fill="black"/>
<path d="M81.2352 215.395C81.8014 216.02 81.5332 216.11 95.0326 193.343C95.065 193.292 95.0868 193.235 95.0969 193.176C95.1069 193.117 95.1049 193.056 95.091 192.998C95.0771 192.94 95.0515 192.885 95.0159 192.836C94.9803 192.788 94.9353 192.747 94.8836 192.717C90.1231 190.211 84.669 189.347 79.3672 190.258C74.0654 191.168 69.2122 193.803 65.5604 197.753C65.2028 198.2 64.6664 197.336 81.2352 215.395ZM50.0942 325.804C50.8585 325.799 51.6043 325.568 52.2377 325.14C52.871 324.712 53.3637 324.106 53.6536 323.399C53.9435 322.692 54.0177 321.915 53.8669 321.165C53.716 320.416 53.3469 319.728 52.806 319.188C54.296 316.774 63.9512 300.891 66.7822 296.6C67.5159 296.939 68.3348 297.049 69.1321 296.916C69.9294 296.783 70.6682 296.413 71.2522 295.855L85.0198 306.463C84.7953 307.128 84.7553 307.84 84.904 308.525C85.0526 309.211 85.3845 309.842 85.8641 310.354C86.3437 310.865 86.9531 311.237 87.6273 311.429C88.3015 311.622 89.0153 311.627 89.6925 311.446C90.3697 311.264 90.985 310.903 91.4727 310.399C91.9605 309.895 92.3024 309.269 92.4621 308.586C92.6217 307.903 92.5931 307.19 92.3793 306.522C92.1655 305.855 91.7745 305.258 91.248 304.795L96.1352 298.358C97.0099 298.758 98.0016 298.821 98.92 298.535C99.8384 298.249 100.619 297.634 101.112 296.808L115.356 301.636C115.279 302.277 115.364 302.927 115.602 303.527C115.84 304.127 116.224 304.658 116.72 305.072C117.216 305.485 117.807 305.769 118.44 305.896C119.073 306.023 119.727 305.99 120.344 305.8C120.961 305.609 121.521 305.268 121.972 304.806C122.423 304.345 122.752 303.778 122.929 303.157C123.105 302.536 123.124 301.881 122.983 301.251C122.842 300.621 122.545 300.036 122.121 299.55C123.313 295.288 133.624 263.79 134.667 260.81C135.667 260.723 136.596 260.253 137.259 259.499C140.09 261.734 148.583 268.081 151.325 269.929C151.168 270.545 151.166 271.191 151.318 271.809C151.47 272.427 151.773 272.998 152.198 273.471C152.623 273.945 153.159 274.306 153.757 274.523C154.355 274.741 154.997 274.807 155.627 274.717C156.257 274.627 156.856 274.383 157.369 274.007C157.882 273.631 158.295 273.134 158.571 272.561C158.847 271.987 158.977 271.355 158.95 270.719C158.923 270.083 158.74 269.464 158.417 268.915C166.344 256.28 166.702 256.489 165.867 255.923C165.71 255.825 165.523 255.79 165.341 255.823C165.159 255.856 164.996 255.955 164.884 256.101C163.483 258.128 156.868 267.425 156.868 267.425C156.163 267.078 155.371 266.947 154.592 267.048C153.813 267.148 153.08 267.477 152.487 267.992C149.716 266.055 140.925 259.767 138.123 257.591C138.243 256.904 138.175 256.196 137.926 255.544C137.676 254.892 137.256 254.32 136.708 253.887C136.16 253.454 135.506 253.178 134.814 253.086C134.122 252.995 133.418 253.092 132.776 253.368C132.135 253.644 131.58 254.088 131.171 254.653C130.761 255.218 130.511 255.883 130.448 256.579C130.386 257.274 130.512 257.973 130.814 258.602C131.116 259.232 131.582 259.768 132.163 260.154C129.601 267.127 122.151 291.265 120.243 298.298C119.527 298.113 118.774 298.133 118.068 298.354C117.362 298.575 116.733 298.989 116.25 299.55C113.27 298.537 104.33 295.825 101.618 294.961C101.618 293.941 101.213 292.963 100.492 292.242C99.7715 291.521 98.7938 291.116 97.7742 291.116C96.7547 291.116 95.7769 291.521 95.0559 292.242C94.335 292.963 93.93 293.941 93.93 294.961C93.9364 295.812 94.2188 296.638 94.7346 297.315L89.4004 303.96C88.8895 303.848 88.3609 303.843 87.848 303.946C87.335 304.048 86.849 304.256 86.4204 304.556L72.2058 293.798C72.3609 292.876 72.1744 291.929 71.6812 291.134C71.1879 290.339 70.4218 289.751 69.5263 289.481C68.6309 289.21 67.6675 289.276 66.8168 289.664C65.966 290.053 65.2863 290.739 64.9048 291.593C64.6084 292.207 64.4877 292.891 64.556 293.57C64.6244 294.248 64.8792 294.895 65.2922 295.437C62.491 299.639 52.3292 315.88 50.869 318.234C50.3341 318.1 49.7766 318.082 49.2343 318.182C48.692 318.283 48.1777 318.498 47.7261 318.815C47.2745 319.131 46.8963 319.541 46.6172 320.017C46.338 320.493 46.1645 321.023 46.1083 321.571C46.0522 322.12 46.1147 322.674 46.2917 323.196C46.4687 323.719 46.756 324.197 47.1341 324.598C47.5121 325 47.9722 325.315 48.4829 325.523C48.9937 325.731 49.5432 325.827 50.0942 325.804ZM101.946 336.353C101.725 336.353 101.513 336.441 101.356 336.597C101.2 336.754 101.112 336.966 101.112 337.187C101.112 337.408 101.2 337.621 101.356 337.777C101.513 337.934 101.725 338.022 101.946 338.022C107.161 338.022 168.37 335.638 170.486 335.608C170.625 335.577 170.75 335.499 170.839 335.388C170.928 335.277 170.976 335.139 170.976 334.997C170.976 334.854 170.928 334.716 170.839 334.605C170.75 334.494 170.625 334.417 170.486 334.386C162.172 334.416 107.28 335.757 101.946 336.353ZM128.14 315.046C128.33 315.046 128.512 314.97 128.646 314.836C128.78 314.702 128.856 314.52 128.856 314.331C128.856 314.141 128.78 313.959 128.646 313.825C128.512 313.691 128.33 313.615 128.14 313.615C125.786 313.615 117.263 313.109 115.267 313.198C114.919 313.198 114.586 313.336 114.34 313.582C114.094 313.828 113.956 314.162 113.956 314.509C113.956 314.857 114.094 315.191 114.34 315.437C114.586 315.682 114.919 315.821 115.267 315.821C117.234 316.059 125.667 315.254 128.14 315.046ZM96.2842 318.86H83.4404C83.1627 318.873 82.8935 318.961 82.6613 319.113C82.429 319.266 82.2421 319.479 82.1202 319.729C81.9983 319.979 81.9459 320.257 81.9684 320.534C81.991 320.811 82.0877 321.077 82.2484 321.304C83.053 322.496 83.6788 321.572 96.3438 320.499C96.501 320.424 96.6328 320.305 96.723 320.155C96.8132 320.006 96.8579 319.834 96.8516 319.66C96.8453 319.486 96.7882 319.318 96.6874 319.175C96.5866 319.033 96.4464 318.924 96.2842 318.86ZM45.4752 334.773C46.101 334.773 55.1602 333.79 57.1568 333.701C57.3781 333.701 57.5903 333.613 57.7468 333.456C57.9033 333.3 57.9912 333.087 57.9912 332.866C57.9912 332.645 57.9033 332.433 57.7468 332.276C57.5903 332.12 57.3781 332.032 57.1568 332.032C55.9946 332.032 45.9222 332.449 45.2368 332.777C45.0549 332.886 44.9084 333.046 44.8151 333.237C44.7217 333.428 44.6855 333.641 44.7107 333.852C44.7358 334.063 44.8214 334.262 44.957 334.426C45.0926 334.589 45.2726 334.71 45.4752 334.773Z" fill="black"/>
<path d="M150.64 283.1H151.117C163.782 281.968 163.335 282.832 163.871 282.236C163.97 282.119 164.035 281.977 164.059 281.826C164.083 281.674 164.064 281.519 164.006 281.378C163.947 281.236 163.851 281.113 163.727 281.023C163.604 280.933 163.458 280.878 163.305 280.865C158.865 280.865 154.693 280.478 150.7 280.656C149.001 280.686 149.15 283.1 150.64 283.1ZM84.0072 257.085C83.6831 257.085 83.3723 257.213 83.1432 257.442C82.9141 257.672 82.7854 257.982 82.7854 258.306C82.7854 258.63 82.9141 258.941 83.1432 259.17C83.3723 259.399 83.6831 259.528 84.0072 259.528C88.2686 259.528 104.867 258.008 108.89 257.591C109.081 257.555 109.253 257.453 109.376 257.303C109.5 257.154 109.568 256.966 109.568 256.772C109.568 256.578 109.5 256.39 109.376 256.24C109.253 256.09 109.081 255.989 108.89 255.952C104.748 256.28 88.1196 256.727 84.0072 257.085ZM81.9808 264.058C81.741 264.117 81.5313 264.262 81.3909 264.465C81.2506 264.669 81.1893 264.916 81.2186 265.161C81.2479 265.407 81.3657 265.633 81.55 265.797C81.7342 265.962 81.9722 266.053 82.2192 266.054C86.9276 266.054 105.404 264.386 110.052 264.356C110.258 264.356 110.455 264.274 110.6 264.129C110.746 263.984 110.827 263.786 110.827 263.581C110.827 263.375 110.746 263.178 110.6 263.033C110.455 262.888 110.258 262.806 110.052 262.806C100.678 262.6 91.2998 263.018 81.9808 264.058ZM107.668 268.826C99.8697 268.713 92.0706 269.022 84.3052 269.75C82.8748 269.928 82.8152 272.104 84.3052 272.104C86.9574 272.104 101.44 270.614 107.698 270.375C107.8 270.373 107.9 270.351 107.994 270.311C108.087 270.27 108.171 270.211 108.242 270.138C108.312 270.065 108.368 269.978 108.405 269.883C108.442 269.789 108.46 269.687 108.458 269.586C108.456 269.484 108.434 269.384 108.393 269.29C108.353 269.197 108.294 269.113 108.221 269.042C108.147 268.972 108.061 268.916 107.966 268.879C107.871 268.842 107.77 268.824 107.668 268.826ZM117.473 204.637C118.933 204.637 133.803 203.087 136.723 202.878C136.929 202.878 137.126 202.797 137.271 202.651C137.417 202.506 137.498 202.309 137.498 202.104C137.498 201.898 137.417 201.701 137.271 201.556C137.126 201.41 136.929 201.329 136.723 201.329C135.263 201.329 119.32 201.806 117.562 201.925C115.804 202.044 115.804 204.637 117.473 204.637ZM120.542 210.656C125.221 210.656 143.458 208.928 148.077 208.63C148.246 208.596 148.397 208.504 148.506 208.371C148.615 208.238 148.674 208.071 148.674 207.9C148.674 207.728 148.615 207.561 148.506 207.428C148.397 207.295 148.246 207.204 148.077 207.17C143.428 207.378 125.072 207.468 120.512 207.944C120.188 207.996 119.892 208.163 119.68 208.414C119.468 208.665 119.354 208.984 119.357 209.313C119.361 209.642 119.483 209.958 119.7 210.205C119.917 210.451 120.216 210.612 120.542 210.656Z" fill="black"/>
</svg>
